<?xml version="1.0" standalone="no"?>
<!DOCTYPE svg PUBLIC "-//W3C//DTD SVG 20010904//EN"
 "http://www.w3.org/TR/2001/REC-SVG-20010904/DTD/svg10.dtd">
<svg version="1.0" xmlns="http://www.w3.org/2000/svg"
 width="1024.000000pt" height="1024.000000pt" viewBox="0 0 1024.000000 1024.000000"
 preserveAspectRatio="xMidYMid meet">

<g transform="translate(0.000000,1024.000000) scale(0.100000,-0.100000)"
fill="#000000" stroke="none">
<path d="M5050 9704 c-28 -19 -53 -34 -55 -34 -2 0 -59 -36 -127 -80 -67 -44
-168 -108 -223 -143 -55 -35 -193 -126 -307 -201 -223 -147 -295 -187 -573
-316 -99 -46 -256 -121 -348 -167 -92 -46 -169 -83 -171 -83 -2 0 -101 -47
-220 -105 -119 -58 -218 -105 -220 -105 -2 0 -88 -41 -190 -90 l-186 -91 0
-403 0 -404 -24 -6 c-21 -5 -151 -25 -366 -57 -36 -5 -154 -27 -263 -49 -109
-22 -255 -51 -325 -64 -70 -14 -192 -39 -272 -56 -409 -88 -597 -118 -876
-141 -82 -6 -151 -13 -153 -15 -3 -2 15 -21 39 -42 202 -173 341 -253 520
-298 82 -20 141 -27 273 -32 l169 -7 -123 -70 c-294 -167 -563 -322 -598 -343
-29 -17 -23 -22 64 -55 232 -87 570 -125 830 -94 66 8 122 12 125 10 3 -3 -37
-44 -89 -91 -52 -48 -123 -114 -159 -148 l-65 -61 67 -26 c36 -15 128 -43 204
-64 133 -35 142 -36 319 -37 101 -1 183 -3 183 -6 -1 -3 -23 -29 -50 -59 -27
-30 -47 -58 -45 -62 6 -8 163 -19 318 -21 l117 -1 -16 -26 c-9 -14 -28 -41
-42 -60 -23 -31 -24 -35 -8 -46 9 -7 44 -18 79 -24 34 -7 83 -20 108 -29 l46
-16 7 -150 c3 -83 6 -802 6 -1598 0 -1351 1 -1448 17 -1464 16 -15 38 -16 234
-10 120 3 242 3 272 0 l56 -7 37 -63 c41 -71 47 -76 154 -123 96 -43 385 -187
498 -248 221 -119 498 -300 1097 -718 256 -179 295 -205 308 -204 7 0 44 22
82 50 39 27 133 92 210 144 77 52 167 115 200 138 239 172 753 517 770 517 4
0 20 10 37 21 27 19 277 159 284 159 2 0 45 20 96 44 51 24 134 60 183 81 161
66 173 73 205 119 16 25 30 49 30 54 0 5 7 16 17 23 13 11 73 14 292 14 l276
0 6 45 c4 25 10 751 14 1613 l8 1568 24 10 c13 5 61 18 106 30 45 11 86 24 91
29 6 6 -5 31 -27 64 -21 31 -37 57 -37 59 0 2 91 7 203 10 111 3 210 9 220 13
17 6 15 10 -15 43 -18 20 -43 47 -55 61 l-22 25 116 -4 c135 -4 271 11 403 46
105 27 241 71 253 83 4 4 -18 29 -50 55 -96 81 -263 236 -263 245 0 9 35 7
198 -11 240 -28 584 22 793 114 l53 24 -95 50 c-99 52 -356 199 -524 300 -55
33 -109 64 -120 69 -13 5 36 10 145 15 343 13 529 83 803 303 l88 71 -118 7
c-282 17 -544 58 -1033 162 -140 30 -347 73 -460 95 -180 35 -277 52 -585 102
-38 6 -76 13 -82 15 -10 2 -13 97 -15 411 l-3 407 -185 88 c-335 159 -579 273
-780 365 -30 14 -98 46 -150 71 -52 24 -147 68 -210 97 -281 128 -413 198
-565 301 -88 59 -199 131 -247 160 -92 56 -118 72 -395 251 l-171 111 -52 -34z
m75 -193 c5 -8 86 -60 418 -267 144 -89 300 -192 379 -249 74 -54 123 -78 568
-283 270 -124 312 -143 504 -236 98 -47 180 -86 182 -86 4 0 119 -53 294 -137
74 -36 145 -69 158 -74 l22 -9 0 -323 c0 -178 -2 -326 -5 -329 -3 -3 -25 -2
-48 3 -101 18 -396 33 -702 33 -326 1 -331 1 -390 -23 -113 -45 -139 -78 -196
-244 -82 -241 -193 -385 -436 -568 -50 -38 -96 -69 -102 -69 -11 0 -51 118
-51 151 0 10 7 19 15 19 19 0 19 5 -1 64 -13 38 -14 50 -4 56 10 6 9 18 -3 56
-8 27 -22 84 -31 126 -42 186 -191 328 -410 388 -115 32 -287 25 -406 -15
-198 -68 -345 -228 -369 -401 -5 -33 -15 -79 -22 -103 -10 -35 -10 -44 1 -51
11 -7 10 -17 -4 -58 -20 -62 -20 -62 -1 -62 8 0 15 -6 15 -13 0 -17 -40 -140
-49 -149 -10 -11 -153 91 -244 174 -149 135 -221 243 -293 440 -51 141 -84
193 -143 227 -78 43 -134 53 -356 58 -210 5 -561 -9 -665 -26 -30 -5 -79 -12
-107 -15 l-53 -5 0 330 0 330 188 90 c103 50 248 119 322 154 74 35 200 94
280 132 473 228 801 383 807 383 6 0 96 61 103 70 13 16 349 234 655 425 28
17 72 45 99 63 52 33 71 39 81 23z m-1464 -2060 c46 -14 97 -48 121 -81 10
-14 30 -59 44 -100 39 -111 89 -216 142 -295 60 -89 191 -222 312 -317 113
-89 124 -101 115 -128 -7 -22 -26 -26 -57 -9 -14 8 -23 8 -31 0 -8 -8 -8 -11
1 -11 7 0 12 -4 12 -10 0 -21 -30 -8 -106 43 -100 67 -202 162 -274 257 -80
105 -133 211 -195 395 -44 128 -50 138 -88 130 -79 -17 -151 -65 -248 -165
-52 -55 -102 -100 -110 -99 -10 0 -10 2 -1 6 27 11 9 18 -43 17 -53 -1 -73 10
-37 19 13 4 11 5 -5 6 -13 0 -23 -3 -23 -9 0 -5 -5 -10 -11 -10 -5 0 -8 4 -5
9 3 4 -7 6 -22 3 -20 -3 -24 -1 -17 7 6 6 32 15 59 20 26 5 53 14 59 21 9 9
-3 10 -55 5 -36 -4 -90 -4 -120 0 l-53 8 45 20 45 20 -30 7 c-16 4 -65 13
-108 19 -122 19 -245 59 -334 107 -82 44 -106 64 -81 64 18 0 398 42 578 64
72 8 486 -2 521 -13z m3429 9 c63 -5 192 -19 285 -30 94 -11 199 -24 235 -28
l65 -8 -54 -27 c-36 -18 -64 -26 -80 -23 -15 3 -20 3 -13 0 17 -8 15 -24 -3
-24 -8 0 -15 5 -15 11 0 7 -10 9 -27 4 -54 -14 -170 -20 -402 -19 -173 0 -228
-2 -210 -10 29 -13 49 -31 49 -45 0 -14 -6 -14 -50 -1 -51 15 -250 58 -283 62
-27 3 -30 -1 -56 -77 -28 -78 -102 -233 -148 -307 -28 -46 -30 -73 -3 -38 11
14 20 20 20 14 0 -5 -9 -20 -20 -32 -11 -12 -20 -25 -20 -30 0 -5 -7 -15 -15
-22 -18 -15 -20 1 -3 18 6 6 9 14 6 17 -3 4 -28 -22 -54 -57 -63 -83 -106
-128 -120 -128 -16 0 -74 -55 -74 -70 0 -7 -8 -10 -20 -7 -11 3 -18 0 -17 -6
2 -13 -71 -57 -95 -57 -11 0 -18 -8 -18 -20 0 -24 -8 -25 -30 -5 -15 14 -19
13 -43 -9 l-27 -25 -15 22 c-18 26 -19 43 -2 51 9 5 9 7 -1 12 -7 3 30 39 95
91 258 204 366 346 465 613 21 57 48 114 60 127 25 27 84 51 153 62 71 12 349
13 485 1z m-1829 -29 c31 -10 69 -26 85 -35 l29 -16 -39 6 c-30 5 -37 4 -31
-6 5 -9 4 -11 -4 -6 -13 9 -66 -22 -56 -32 3 -4 11 0 16 8 9 13 10 13 6 0 -2
-8 -13 -16 -25 -18 -12 -2 -22 -9 -22 -17 0 -7 -3 -15 -8 -17 -4 -1 -22 -22
-40 -45 -32 -41 -32 -42 -12 -56 22 -15 17 -27 -12 -27 -10 0 -18 7 -18 15 0
8 -4 15 -10 15 -5 0 -10 -14 -10 -31 0 -28 -2 -31 -25 -25 -14 4 -25 2 -25 -4
0 -19 -39 -10 -167 37 -70 25 -152 48 -180 51 -29 2 -53 6 -53 9 0 2 15 23 33
45 57 73 193 147 307 168 67 13 197 4 261 -19z m-2761 -116 l34 -35 -30 0
c-16 0 -36 -5 -44 -10 -11 -7 -6 -10 20 -11 l35 -1 -30 -9 c-29 -9 -175 -30
-205 -30 -38 0 -128 9 -155 16 -39 9 -165 66 -165 74 0 3 62 7 138 8 75 1 173
8 217 16 131 24 146 22 185 -18z m2907 11 c-3 -8 -1 -17 6 -19 8 -3 9 -8 2
-15 -16 -17 -35 1 -28 26 3 12 10 22 15 22 6 0 8 -6 5 -14z m58 -6 c18 -20 18
-21 -5 -12 -13 5 -26 14 -28 20 -6 19 13 14 33 -8z m-191 -11 c-48 -54 -87
-89 -93 -84 -3 4 2 11 12 16 9 6 17 17 17 24 0 8 3 15 8 15 4 0 20 11 36 25
36 31 46 32 20 4z m2825 -1 c86 -1 118 -4 106 -11 -22 -12 -258 -3 -300 12
-26 9 -23 10 21 5 28 -3 106 -6 173 -6z m-6222 -65 c23 -32 41 -58 40 -59 -1
-1 -69 -14 -152 -29 -82 -14 -195 -35 -250 -46 -84 -17 -307 -61 -380 -74
-130 -24 -199 -29 -425 -29 -209 -1 -260 2 -280 14 -23 14 -18 15 90 21 125 7
229 24 415 69 206 49 335 78 485 109 241 51 384 79 400 80 8 0 34 -25 57 -56z
m3498 37 c3 -5 2 -10 -4 -10 -5 0 -13 5 -16 10 -3 6 -2 10 4 10 5 0 13 -4 16
-10z m3190 -21 c67 -10 190 -35 275 -55 85 -19 185 -42 222 -50 37 -8 78 -18
91 -23 14 -6 58 -17 99 -25 40 -9 112 -25 159 -35 47 -11 118 -23 158 -27 39
-3 71 -11 71 -16 0 -5 -15 -7 -32 -4 -18 3 -80 13 -138 22 -58 9 -206 41 -330
71 -323 78 -380 90 -555 122 -189 35 -220 39 -227 34 -5 -2 -8 1 -8 8 0 12 13
11 215 -22z m-3220 1 c3 -6 -1 -7 -9 -4 -18 7 -21 14 -7 14 6 0 13 -4 16 -10z
m-31 -16 c4 -10 1 -14 -6 -12 -15 5 -23 28 -10 28 5 0 13 -7 16 -16z m-35 -8
c9 -10 8 -15 -4 -20 -10 -4 -15 1 -15 14 0 24 4 25 19 6z m-29 -23 c0 -10 -32
-43 -42 -43 -5 0 -1 11 9 25 17 23 33 32 33 18z m-1740 -22 c0 -5 -6 -12 -12
-14 -7 -3 -3 -6 9 -6 13 -1 23 6 26 17 4 14 5 14 6 -3 0 -11 -8 -26 -19 -33
-11 -7 -20 -17 -20 -23 0 -6 -11 -24 -25 -41 -14 -16 -25 -40 -25 -54 0 -28
-8 -30 -26 -6 -11 14 -13 15 -14 2 0 -9 6 -22 13 -29 10 -11 9 -12 -7 -4 -20
11 -31 59 -15 68 5 4 9 15 9 25 0 10 3 20 8 22 4 2 22 22 40 46 32 40 52 53
52 33z m1187 -23 c4 -7 8 -20 8 -28 1 -8 2 -25 3 -37 4 -53 115 -133 163 -118
10 4 19 2 19 -3 0 -14 -57 -32 -101 -32 -50 0 -50 -14 1 -29 22 -6 40 -16 40
-22 0 -5 -19 -18 -42 -29 l-43 -19 43 0 c37 -1 56 -13 35 -23 -5 -2 -19 -16
-33 -32 l-25 -29 28 7 c40 10 32 -3 -43 -70 -36 -32 -56 -54 -45 -50 11 5 30
11 43 13 12 3 25 9 28 14 3 5 14 9 25 9 19 0 18 -2 -7 -47 -14 -26 -33 -53
-42 -60 -15 -10 -14 -11 6 -6 12 3 22 9 22 14 0 5 9 9 20 9 11 0 20 -4 20 -10
0 -5 -7 -10 -16 -10 -8 0 -13 -4 -9 -10 6 -10 -13 -50 -30 -62 -6 -5 -3 -8 7
-8 9 0 20 5 23 10 7 11 65 14 65 3 0 -4 -12 -17 -27 -30 -20 -16 -23 -22 -12
-23 23 0 89 46 126 88 31 36 32 36 33 12 0 -52 -20 -143 -36 -161 -10 -11 -14
-19 -10 -19 19 0 49 25 76 62 l30 41 0 -34 c0 -39 -30 -109 -67 -157 -39 -52
-23 -46 37 12 30 30 58 52 62 49 18 -11 6 -78 -23 -129 -17 -30 -28 -54 -25
-54 3 0 18 14 35 32 l30 32 7 -30 c4 -16 2 -144 -6 -284 -7 -140 -13 -280 -12
-310 l0 -54 -20 24 c-11 14 -33 53 -49 88 -27 58 -38 96 -54 196 -8 47 -17 39
-43 -38 l-20 -60 -12 45 c-7 24 -10 73 -7 109 3 38 1 57 -4 45 -4 -11 -8 -41
-8 -67 -1 -27 -5 -48 -10 -48 -15 0 -25 85 -24 188 1 52 -1 92 -3 89 -3 -3
-18 -38 -34 -78 -28 -72 -29 -73 -39 -46 -6 16 -11 47 -11 70 0 42 21 155 36
191 5 14 4 17 -5 11 -17 -10 -61 -109 -62 -138 -1 -16 -4 -12 -11 13 -6 19 -8
77 -5 128 2 50 2 92 0 92 -10 0 -53 -108 -53 -135 0 -16 -4 -36 -9 -44 -14
-22 -36 86 -33 172 1 43 -2 76 -7 73 -4 -3 -14 -31 -21 -62 -15 -61 -28 -54
-30 16 0 31 -2 33 -12 16 -15 -27 -4 -157 20 -233 19 -61 123 -220 260 -398
53 -68 83 -119 96 -162 7 -22 -168 151 -223 221 -39 49 -39 41 0 -37 50 -99
81 -138 237 -300 81 -84 167 -178 192 -211 40 -53 45 -56 57 -40 7 10 13 22
13 28 0 5 2 7 6 4 3 -3 -2 -43 -10 -89 -8 -46 -18 -110 -21 -142 -4 -31 -11
-55 -16 -52 -5 4 -9 -9 -10 -27 -1 -43 -22 -129 -32 -131 -9 -2 -55 97 -92
198 l-25 70 6 -55 c4 -30 11 -66 16 -80 11 -29 38 -128 38 -138 -1 -17 -34 57
-61 138 -19 59 -29 110 -29 150 0 33 -4 60 -8 60 -9 0 -26 -171 -26 -273 -1
-31 -2 -57 -4 -57 -2 0 -12 20 -23 45 -12 27 -23 85 -29 147 -5 57 -12 130
-16 163 l-8 60 -13 -50 c-8 -27 -17 -105 -20 -172 -3 -67 -10 -120 -14 -117
-22 13 -50 145 -55 259 -7 147 -8 153 -32 131 -32 -28 -50 -1 -67 98 -8 49
-15 113 -15 142 0 29 -4 56 -10 59 -9 6 -13 -23 -14 -93 0 -12 -5 -21 -11 -19
-23 8 -57 90 -64 155 -7 66 -8 66 -15 27 -4 -22 -8 -47 -9 -55 -1 -8 -13 3
-26 25 -26 42 -33 118 -18 184 7 34 7 34 -13 16 -11 -10 -22 -26 -25 -36 -9
-28 -25 -13 -25 24 0 18 -5 48 -11 67 -12 40 -15 168 -5 220 l7 35 -25 -30
c-14 -16 -28 -27 -31 -23 -13 12 68 285 96 323 4 6 34 61 68 123 73 135 111
264 86 292 -20 22 -19 27 12 56 l27 25 -22 15 c-12 8 -22 25 -22 37 1 25 22
57 38 57 6 0 9 6 6 14 -3 8 -1 17 5 21 22 13 11 25 -16 19 -26 -7 -27 -6 -14
12 54 70 90 91 108 62z m-1922 -48 c10 -16 -44 -43 -159 -82 -61 -20 -100 -37
-88 -37 14 -1 22 -6 20 -13 -6 -18 -102 -22 -168 -8 -57 13 -190 68 -190 79 0
3 62 7 138 7 112 1 162 7 272 31 156 35 167 36 175 23z m2095 -15 c35 -18 38
-30 10 -45 -33 -17 -60 -3 -60 31 0 33 9 35 50 14z m537 -12 c5 -15 -43 -47
-57 -38 -17 11 -11 31 13 43 25 12 39 11 44 -5z m-248 -43 c15 -25 15 -25 -5
-7 -37 31 -44 5 -45 -173 l-1 -163 -29 53 c-16 29 -29 57 -29 61 0 4 -21 26
-47 49 l-47 41 19 36 c11 20 40 58 64 85 36 41 49 49 74 46 19 -2 36 -12 46
-28z m-189 -27 c-39 -45 -60 -59 -60 -41 0 13 82 89 89 82 2 -2 -11 -20 -29
-41z m-1610 19 c0 -9 -44 -32 -58 -32 -9 1 41 39 51 40 4 0 7 -4 7 -8z m-95
-18 c-9 -9 -18 -14 -21 -11 -9 9 6 27 22 27 13 0 13 -2 -1 -16z m-1190 -24 c3
-11 19 -29 36 -40 16 -12 29 -26 29 -31 0 -14 -415 -211 -825 -392 -100 -44
-217 -79 -405 -122 -36 -8 -91 -21 -122 -29 -32 -7 -58 -10 -58 -5 0 5 27 22
60 39 34 17 89 48 123 68 120 74 363 202 496 262 185 84 627 266 653 269 4 1
9 -8 13 -19z m-1432 -17 c-7 -2 -21 -2 -30 0 -10 3 -4 5 12 5 17 0 24 -2 18
-5z m2342 -63 c0 -34 -223 -128 -335 -140 -68 -8 -83 -6 -155 18 l-80 27 110
6 c93 6 135 15 270 58 166 52 190 56 190 31z m5450 -30 c3 -6 -1 -7 -9 -4 -18
7 -21 14 -7 14 6 0 13 -4 16 -10z m-4958 -52 c-3 -7 -5 -2 -5 12 0 14 2 19 5
13 2 -7 2 -19 0 -25z m5287 -88 c191 -84 455 -221 497 -256 8 -8 48 -30 87
-49 75 -36 94 -52 41 -33 -43 15 -114 55 -129 73 -7 8 -17 15 -23 15 -6 0 -47
22 -91 48 -71 42 -255 132 -272 132 -10 0 -294 140 -294 145 0 6 23 -3 184
-75z m-5449 -20 c8 -14 -9 -29 -83 -74 -91 -55 -237 -116 -278 -116 -20 0 -68
10 -107 22 l-72 22 45 8 c184 33 315 73 417 127 42 22 69 26 78 11z m-855 -56
c0 -8 4 -14 9 -14 4 0 20 -10 35 -21 26 -20 26 -22 10 -40 -9 -10 -48 -38 -86
-61 -38 -24 -124 -81 -191 -128 -67 -47 -153 -103 -192 -125 -38 -21 -84 -49
-101 -62 -17 -12 -34 -23 -37 -23 -3 0 -23 -12 -44 -26 -66 -45 -196 -102
-256 -113 -32 -6 -72 -17 -90 -25 -64 -30 -137 -56 -136 -48 0 7 146 126 274
223 132 101 464 314 640 410 148 82 165 87 165 53z m293 -218 c9 -7 17 -17 17
-21 0 -27 -384 -380 -569 -522 -58 -45 -136 -93 -151 -93 -8 0 57 71 145 158
179 176 521 492 533 492 4 0 15 -7 25 -14z m603 -31 c-11 -8 -28 -15 -39 -15
-10 0 -16 -4 -13 -8 3 -5 -23 -14 -57 -21 -96 -20 -117 -22 -62 -5 28 8 57 18
65 21 104 42 135 50 106 28z m5121 -178 c3 -5 -22 10 -56 33 -33 23 -64 47
-68 53 -3 6 22 -9 56 -33 34 -24 65 -48 68 -53z m-5388 -39 c-18 -31 -20 -48
-8 -70 5 -10 6 -18 1 -18 -5 0 -37 -35 -71 -77 -100 -123 -220 -250 -301 -320
-102 -87 -101 -86 -107 -79 -6 6 5 21 111 147 43 52 93 112 111 134 106 129
268 313 273 309 2 -1 -2 -13 -9 -26z m586 22 c3 -5 1 -10 -4 -10 -6 0 -11 5
-11 10 0 6 2 10 4 10 3 0 8 -4 11 -10z m-547 -35 c-3 -3 -9 2 -12 12 -6 14 -5
15 5 6 7 -7 10 -15 7 -18z m5525 -73 c54 -41 95 -77 93 -80 -7 -7 -46 20 -104
71 -26 23 -59 50 -72 60 -14 9 -34 24 -45 33 -19 14 -19 14 5 3 14 -7 69 -46
123 -87z m-5552 35 c-1 -12 -15 -9 -19 4 -3 6 1 10 8 8 6 -3 11 -8 11 -12z
m499 -27 c-6 -11 -15 -20 -20 -20 -6 0 -5 9 2 20 7 11 16 20 21 20 4 0 3 -9
-3 -20z m234 -198 c-4 -18 -13 -32 -21 -32 -8 0 -13 3 -11 8 33 69 42 76 32
24z m-414 -29 c-18 -32 -37 -65 -44 -73 -6 -8 -18 -27 -25 -42 -8 -15 -19 -24
-25 -21 -6 3 -8 3 -4 -2 4 -4 -5 -24 -20 -44 -16 -20 -39 -52 -52 -71 -20 -28
-21 -32 -5 -20 11 8 30 26 43 40 34 35 -98 -157 -138 -202 -18 -21 -36 -35
-41 -33 -11 7 -61 -56 -55 -70 2 -7 -5 -15 -16 -18 -11 -3 -18 -9 -15 -14 3
-4 -1 -14 -9 -21 -12 -11 -14 -9 -14 11 0 39 418 637 446 637 3 0 -9 -26 -26
-57z m1030 -393 c45 -91 83 -198 111 -315 11 -48 24 -98 29 -111 15 -37 -3
-28 -30 16 -14 22 -29 40 -33 40 -23 0 23 -162 92 -329 17 -41 29 -76 26 -79
-2 -3 -8 4 -12 16 -5 11 -12 21 -16 21 -5 0 -22 17 -38 37 -31 40 -37 33 -16
-19 8 -18 17 -45 21 -62 6 -25 5 -28 -6 -17 -7 7 -18 27 -25 45 -9 26 -12 28
-12 10 -1 -12 11 -53 25 -90 102 -270 96 -245 95 -393 -2 -143 -27 -290 -54
-317 -13 -13 -17 -11 -35 15 -19 26 -22 48 -27 173 -6 149 -23 289 -35 289 -4
0 -10 -42 -14 -94 -3 -51 -12 -106 -20 -122 -8 -16 -17 -60 -22 -99 -7 -69 -7
-70 -16 -30 -11 56 -10 257 2 388 6 60 9 112 6 114 -2 2 -13 -15 -23 -39 -46
-100 -44 -97 -39 -58 3 19 8 46 11 60 4 14 -4 5 -17 -19 -12 -24 -56 -78 -96
-120 -41 -42 -64 -61 -52 -44 12 18 36 65 55 105 54 118 58 188 7 123 -26 -32
-34 -32 -22 1 14 36 40 201 40 249 l-1 40 -20 -38 c-33 -63 -31 -36 2 34 29
58 79 229 79 267 0 9 -12 -3 -27 -26 -30 -46 -46 -54 -38 -19 25 116 34 254
15 242 -5 -3 -15 -24 -21 -45 -7 -22 -16 -40 -21 -40 -17 0 -2 451 18 513 6
18 26 -18 154 -273z m-748 170 c-4 -3 -16 -24 -27 -47 -11 -24 -23 -43 -27
-43 -5 0 -8 -9 -8 -20 0 -22 -15 -27 -24 -7 -3 6 -5 3 -5 -8 2 -37 -1 -46 -12
-39 -8 4 -9 -1 -4 -17 4 -17 3 -20 -3 -10 -7 10 -11 10 -17 1 -4 -7 -2 -16 5
-20 9 -5 9 -9 1 -14 -6 -4 -11 -2 -11 4 0 6 -5 8 -10 5 -6 -3 -8 -16 -5 -28 3
-12 -1 -31 -9 -42 -9 -12 -15 -15 -16 -7 0 7 -5 10 -11 6 -8 -5 -7 -9 1 -14
16 -10 -57 -141 -74 -134 -7 3 -12 -6 -13 -18 -1 -13 -7 -24 -13 -26 -5 -2
-10 -9 -10 -15 0 -7 -9 -18 -20 -25 -11 -7 -20 -19 -20 -27 0 -8 -4 -15 -10
-15 -17 0 -11 22 19 75 15 28 68 122 118 210 49 88 101 178 115 200 14 22 27
45 29 50 2 6 15 28 29 49 l24 39 8 -28 c4 -16 4 -32 0 -35z m162 -185 c-13
-39 -34 -92 -45 -119 -11 -27 -18 -57 -16 -67 3 -10 0 -17 -6 -16 -7 1 -12
-14 -13 -37 -1 -21 -6 -41 -11 -45 -11 -7 -43 -69 -43 -83 0 -6 -9 -21 -20
-35 -11 -14 -20 -36 -20 -48 0 -13 -9 -33 -20 -46 -17 -22 -19 -22 -20 -5 0
34 225 584 236 574 1 -2 -8 -35 -22 -73z m-768 -93 c-18 -16 -18 -16 -6 6 6
13 14 21 18 18 3 -4 -2 -14 -12 -24z m730 -69 c-18 -33 -21 -26 -6 13 6 15 13
24 16 21 3 -3 -1 -18 -10 -34z m-1185 -355 c1 -68 5 -355 8 -638 l6 -515 363
0 c266 0 362 -3 362 -12 0 -8 -104 -12 -387 -15 -214 -2 -391 -2 -395 0 -5 2
-8 295 -8 653 l0 649 25 0 25 0 1 -122z m5019 -421 c0 -293 -3 -583 -7 -644
l-6 -113 -399 0 c-259 0 -398 4 -398 10 0 8 597 18 716 13 20 -1 22 5 26 80 3
45 3 258 1 472 -3 215 -1 463 2 552 7 155 8 162 29 165 11 2 24 2 29 0 4 -2 7
-243 7 -535z m-436 -17 c4 -52 11 -112 17 -132 11 -41 13 -43 158 -73 41 -9
76 -17 78 -19 2 -1 -44 -15 -102 -31 -57 -15 -111 -33 -119 -39 -10 -7 -20
-57 -31 -151 -9 -77 -18 -142 -21 -144 -7 -8 -13 25 -24 144 -6 66 -18 129
-25 141 -13 21 -139 64 -187 64 -12 0 -29 4 -37 9 -10 6 -4 11 20 15 120 24
178 38 194 50 14 10 22 44 35 147 10 74 19 136 19 139 1 3 5 -2 10 -10 5 -8
11 -58 15 -110z m-4170 88 c3 -13 10 -68 16 -123 7 -55 16 -107 21 -117 10
-18 71 -40 164 -59 l60 -12 -65 -19 c-36 -10 -87 -27 -115 -36 l-50 -17 -11
-90 c-7 -50 -15 -116 -19 -147 -3 -32 -10 -58 -14 -58 -5 0 -13 62 -20 138
-10 115 -15 140 -32 154 -20 17 -83 38 -179 59 l-55 12 40 10 c129 29 196 51
204 66 5 9 15 72 22 139 11 115 23 150 33 100z m596 -236 c23 -43 29 -48 73
-56 l47 -8 -34 -38 c-31 -35 -34 -41 -26 -76 5 -21 8 -40 6 -41 -1 -2 -21 7
-43 19 l-40 22 -46 -28 c-51 -29 -52 -29 -37 26 13 46 2 71 -43 95 l-32 17 50
9 c62 10 74 20 81 68 4 22 9 39 13 39 3 0 17 -21 31 -48z m2969 4 c13 -47 42
-66 97 -66 32 0 30 -5 -12 -42 -34 -30 -35 -33 -29 -80 l7 -49 -37 26 c-46 30
-58 31 -101 4 l-34 -21 1 24 c0 13 4 32 8 43 11 28 4 42 -36 69 l-34 23 51 7
c50 7 52 8 72 56 11 28 24 50 27 50 4 0 13 -20 20 -44z m-2066 -425 c38 -15
41 -38 8 -55 -22 -12 -30 -25 -35 -57 -10 -65 -32 -109 -54 -109 -41 0 -34
149 9 205 22 27 35 30 72 16z m1169 -2 c11 -6 26 -26 34 -44 16 -39 19 -125 4
-125 -5 0 -10 -9 -10 -20 0 -13 -9 -22 -25 -26 -14 -4 -28 -4 -30 -2 -3 2 -11
35 -19 73 -8 40 -21 72 -30 77 -27 15 -19 48 17 63 39 17 34 17 59 4z m-1335
-21 c21 -17 15 -27 -19 -30 -32 -3 -34 -6 -45 -62 -12 -61 -50 -115 -72 -102
-6 4 -11 30 -11 58 0 60 30 130 63 146 24 12 64 7 84 -10z m375 10 c9 -7 19
-23 23 -35 5 -19 3 -23 -17 -23 -23 0 -24 -2 -20 -64 4 -55 1 -66 -18 -84 -13
-12 -20 -27 -17 -35 3 -8 1 -20 -3 -28 -11 -16 -13 -10 -29 75 -16 88 -14 171
5 190 19 19 54 21 76 4z m768 -8 c14 -14 20 -33 20 -65 0 -44 -14 -61 -23 -27
-3 9 -5 1 -6 -18 -2 -63 -11 -80 -41 -80 -20 0 -29 6 -34 23 -10 36 -7 82 6
95 9 9 8 12 -5 12 -11 0 -17 8 -17 24 0 31 21 47 73 55 4 0 16 -8 27 -19z
m403 -8 c19 -20 31 -46 37 -83 8 -48 7 -56 -12 -71 -34 -30 -46 -22 -58 40
-14 67 -24 82 -56 82 -27 0 -30 9 -11 32 28 36 66 35 100 0z m-1323 -32 c0 -5
-2 -10 -4 -10 -3 0 -8 5 -11 10 -3 6 -1 10 4 10 6 0 11 -4 11 -10z m-420 -24
c0 -22 -9 -24 -105 -27 -85 -2 -90 -1 -93 19 -3 21 0 22 97 22 81 0 101 -3
101 -14z m2044 8 c9 -3 16 -13 16 -20 0 -12 -19 -14 -102 -12 -89 3 -103 5
-106 21 -3 15 6 17 86 17 50 0 97 -3 106 -6z m-976 -26 c3 -16 -7 -18 -95 -18
-146 0 -233 10 -233 27 0 11 30 13 162 11 146 -3 163 -5 166 -20z m-1730 -38
c-10 -39 -28 -46 -28 -10 0 28 11 50 25 50 10 0 11 -9 3 -40z m1819 34 c-3 -3
-12 -4 -19 -1 -8 3 -5 6 6 6 11 1 17 -2 13 -5z m1363 -10 c0 -8 -4 -12 -10 -9
-5 3 -10 10 -10 16 0 5 5 9 10 9 6 0 10 -7 10 -16z m-2760 -14 c0 -11 -4 -20
-10 -20 -5 0 -10 9 -10 20 0 11 5 20 10 20 6 0 10 -9 10 -20z m-92 -2 c-3 -7
-13 -13 -23 -13 -10 0 -20 6 -22 13 -3 7 5 12 22 12 17 0 25 -5 23 -12z m-113
-23 c0 -11 -97 -19 -132 -10 -13 3 -23 10 -23 16 0 6 29 9 78 7 43 -2 77 -7
77 -13z m2875 5 c0 -6 -32 -10 -76 -10 -47 0 -73 4 -69 10 3 6 37 10 76 10 39
0 69 -4 69 -10z m-2269 -347 c43 -93 51 -132 39 -194 -6 -29 -8 -54 -6 -56 9
-9 50 94 71 176 12 47 26 86 32 88 5 2 33 -47 62 -108 47 -100 381 -893 381
-904 0 -3 -58 -5 -129 -5 l-130 0 -32 80 -33 80 -226 0 -226 0 -37 -80 -36
-80 -131 0 c-75 0 -130 4 -130 9 0 12 266 591 385 836 48 99 91 190 96 203 5
12 11 22 14 22 2 0 19 -30 36 -67z m971 24 c15 -23 59 -82 98 -132 39 -49 81
-105 93 -122 12 -18 25 -33 29 -33 4 0 53 63 109 140 l103 140 173 0 173 0 0
-510 0 -510 -130 0 -130 0 0 341 c0 315 -1 340 -16 328 -9 -8 -57 -68 -106
-134 -49 -66 -107 -144 -130 -172 l-41 -52 -46 64 c-86 119 -220 293 -230 300
-8 4 -11 -80 -11 -273 0 -153 -3 -307 -6 -341 l-7 -61 -122 0 -123 0 -7 38
c-8 43 -4 737 5 797 5 30 22 59 69 115 34 41 66 74 69 73 9 -2 71 -125 72
-140 0 -7 4 -13 8 -13 5 0 17 35 26 78 22 91 33 122 43 122 5 0 20 -20 35 -43z
m-1272 -29 c0 -20 -12 -51 -31 -78 -16 -25 -41 -65 -54 -90 -13 -25 -44 -76
-68 -113 -25 -38 -135 -217 -244 -398 l-198 -329 -137 0 c-76 0 -138 4 -138 9
0 10 48 96 106 191 23 36 94 155 160 264 157 263 147 246 172 286 12 19 22 38
22 43 0 4 -123 7 -273 7 l-274 0 -31 81 c-18 44 -35 98 -38 120 l-7 39 517 0
516 0 0 -32z m2962 2 c60 -21 145 -95 172 -149 39 -77 49 -160 44 -384 -4
-169 -8 -210 -24 -249 -31 -77 -76 -131 -133 -162 -98 -52 -127 -56 -498 -56
l-343 0 -2 506 c-2 278 -1 508 2 510 2 3 171 4 375 1 274 -2 380 -7 407 -17z
m-2795 -1292 c12 -21 5 -40 -53 -150 -76 -141 -104 -210 -105 -260 l-1 -43
-10 55 c-5 30 -7 71 -5 90 6 46 59 178 103 258 34 60 55 75 71 50z m247 -15
c-4 -16 -8 -38 -8 -50 -1 -13 -5 -23 -9 -23 -5 0 -6 -4 -2 -9 3 -5 1 -12 -5
-16 -5 -3 -10 -19 -10 -35 0 -16 -4 -32 -10 -35 -5 -3 -10 -14 -10 -23 1 -13
4 -12 13 6 19 34 28 14 12 -25 -17 -41 -19 -63 -6 -63 5 0 12 14 16 31 4 17 9
28 12 25 8 -8 -27 -96 -38 -96 -6 0 -9 -6 -8 -12 3 -25 -1 -38 -12 -38 -7 0
-8 11 -4 31 5 20 3 29 -3 25 -9 -6 -24 -77 -37 -180 -9 -68 -21 -46 -34 64
-10 86 -10 102 8 165 21 74 82 224 107 263 21 32 38 29 28 -5z m1976 -34 c0
-21 -55 -179 -62 -179 -13 0 -9 23 12 85 27 78 26 85 -10 85 -16 0 -30 5 -30
10 0 6 20 10 45 10 25 0 45 -5 45 -11z m210 0 c0 -23 -54 -189 -62 -189 -12 0
-10 11 10 71 11 30 22 66 26 82 6 26 5 27 -39 27 -25 0 -45 5 -45 10 0 6 25
10 55 10 32 0 55 -4 55 -11z m-2169 -56 c-8 -15 -10 -15 -11 -2 0 17 10 32 18
25 2 -3 -1 -13 -7 -23z m13 -39 c-9 -22 -18 -33 -21 -26 -3 6 -11 12 -19 12
-16 0 -16 2 -7 25 5 15 8 14 19 -6 l13 -24 12 33 c6 18 13 31 16 29 2 -3 -3
-22 -13 -43z m-303 -11 c-8 -15 -10 -15 -11 -2 0 17 10 32 18 25 2 -3 -1 -13
-7 -23z m539 -18 c0 -8 -4 -24 -9 -37 -5 -13 -17 -63 -25 -112 -9 -48 -27
-125 -40 -170 -14 -45 -30 -127 -38 -182 l-13 -99 -12 65 c-15 83 -16 194 -2
261 10 45 38 114 105 255 17 35 34 45 34 19z m344 -237 c-6 -147 6 -425 22
-496 l6 -27 -21 25 c-33 41 -141 234 -168 302 -26 62 -26 63 -7 95 35 58 168
263 171 263 2 0 1 -73 -3 -162z m-397 -150 c-3 -8 -6 -5 -6 6 -1 11 2 17 5 13
3 -3 4 -12 1 -19z"/>
<path d="M4954 9348 c-71 -45 -158 -100 -193 -122 -35 -23 -111 -70 -167 -106
-56 -36 -167 -109 -246 -162 -79 -53 -177 -112 -218 -131 -41 -19 -138 -65
-215 -102 -77 -36 -174 -83 -215 -102 -41 -20 -165 -80 -275 -133 -110 -54
-227 -110 -260 -125 -33 -15 -160 -77 -282 -136 l-223 -108 0 -128 c0 -70 3
-152 7 -181 5 -45 8 -52 24 -47 14 5 19 1 19 -10 0 -12 -6 -16 -20 -12 -14 3
-20 0 -20 -10 0 -12 8 -14 34 -10 19 3 42 0 52 -7 11 -7 35 -12 54 -12 31 1
35 4 38 29 2 15 9 27 18 27 17 0 19 -27 2 -33 -10 -4 -10 -7 0 -18 11 -11 14
-10 19 9 3 12 11 21 18 20 8 -2 39 21 69 50 56 52 56 52 115 50 32 -2 57 -6
54 -10 -2 -5 3 -8 12 -8 9 0 14 4 10 9 -11 19 62 24 87 7 12 -9 29 -16 38 -16
10 1 7 5 -8 13 -12 7 -20 16 -16 19 3 4 22 -2 41 -13 38 -22 66 -19 57 5 -5
13 0 13 31 5 20 -6 42 -8 48 -6 7 2 22 0 35 -4 13 -5 22 -5 22 1 0 6 25 10 55
10 41 0 57 -4 61 -15 5 -12 10 -13 20 -4 7 6 18 8 24 4 6 -4 17 -1 25 5 13 10
15 8 16 -16 1 -31 3 -27 14 20 l6 29 23 -22 c26 -25 36 -19 36 22 0 25 2 28
15 17 8 -7 15 -9 15 -4 0 4 6 0 13 -10 13 -18 14 -18 21 -1 4 11 13 15 26 12
11 -3 23 -1 26 4 3 5 10 7 15 4 5 -4 18 -3 30 0 17 6 18 9 7 23 -7 9 -1 7 15
-5 16 -12 41 -40 57 -62 16 -22 36 -44 45 -48 15 -9 15 -11 1 -22 -22 -18 -20
-53 4 -79 26 -28 56 -28 71 0 11 21 12 21 48 -19 42 -47 94 -64 110 -35 6 10
11 12 11 5 0 -7 5 -13 10 -13 23 0 7 49 -35 104 -35 47 -43 65 -38 87 4 24 1
29 -19 34 -13 3 -30 5 -38 3 -8 -2 -20 10 -28 25 -14 29 -10 57 8 57 7 0 7 -6
-1 -21 -10 -19 -9 -20 13 -14 32 10 33 12 14 31 -22 21 -15 27 17 15 28 -11
42 -4 27 14 -15 18 20 46 48 38 12 -3 22 -9 22 -14 0 -5 5 -9 10 -9 11 0 -8
40 -24 51 -15 11 2 39 29 49 15 6 25 17 25 29 0 11 6 26 13 33 7 7 19 27 26
45 7 17 21 39 32 49 10 9 19 23 19 29 0 7 7 16 16 19 8 3 12 11 9 16 -4 6 3
19 14 29 13 11 19 25 15 35 -4 11 -1 16 12 16 12 0 26 16 39 43 15 31 25 41
40 39 13 -2 16 0 8 5 -9 6 -4 16 18 33 17 14 35 35 40 48 7 18 14 22 32 18 12
-3 16 -3 10 0 -14 6 36 54 56 54 13 0 48 19 75 40 14 11 20 12 23 3 3 -7 9
-13 14 -13 6 0 7 5 4 10 -3 6 1 10 10 10 8 0 23 4 33 9 62 31 171 53 158 32
-4 -6 -3 -11 3 -11 5 0 13 5 16 10 7 12 82 13 89 2 3 -5 37 -9 76 -10 40 -1
80 -7 90 -12 9 -5 20 -6 24 -3 3 3 6 -1 6 -11 0 -13 6 -15 26 -10 17 4 25 3
21 -3 -3 -5 4 -9 16 -9 16 1 21 -4 19 -18 -3 -14 1 -17 13 -13 16 7 113 -50
114 -66 1 -5 15 -20 31 -34 17 -13 30 -33 30 -44 0 -13 5 -17 16 -12 13 5 15
1 9 -18 -4 -16 -3 -19 3 -11 7 10 13 7 25 -12 10 -14 17 -30 17 -36 0 -5 8
-15 19 -21 11 -7 16 -19 13 -31 -2 -10 1 -18 7 -18 7 0 11 -6 10 -12 -4 -24
13 -48 33 -48 12 0 17 -4 12 -12 -4 -6 1 -17 12 -25 16 -12 17 -15 4 -23 -13
-8 -12 -10 3 -10 9 0 17 -5 17 -11 0 -17 32 -80 38 -75 6 7 42 -39 42 -53 0
-6 8 -11 18 -11 10 0 23 -5 30 -12 7 -7 12 -20 12 -30 0 -10 7 -18 18 -18 16
-1 16 -1 0 -14 -10 -7 -18 -18 -18 -25 0 -14 23 -14 37 0 8 8 15 5 26 -11 12
-17 17 -18 23 -8 6 9 10 4 14 -17 3 -18 12 -31 23 -33 12 -3 15 1 10 14 -7 18
5 17 50 -1 12 -5 17 -2 17 9 0 20 16 21 23 1 4 -9 -5 -18 -28 -27 -19 -6 -31
-16 -27 -20 5 -5 21 -4 36 2 15 5 39 10 52 10 20 0 24 4 19 19 -3 11 -2 22 2
24 4 3 9 -9 10 -25 3 -38 9 -45 30 -32 24 15 27 32 6 37 -13 3 -11 5 7 6 43 1
56 -13 42 -46 -11 -24 -10 -26 1 -10 10 11 28 17 55 17 22 0 44 5 48 12 5 8
11 6 19 -5 17 -23 55 -26 69 -4 9 14 8 20 -4 28 -12 9 -12 10 4 5 10 -4 25 -1
32 5 10 8 14 8 14 0 0 -6 5 -11 11 -11 5 0 8 4 5 8 -3 5 4 16 15 26 20 17 21
17 14 -12 -5 -26 -2 -32 24 -45 29 -14 32 -14 41 3 12 22 -6 32 -42 23 -23 -6
-22 -6 5 22 35 36 36 59 2 51 -14 -4 -25 -2 -25 4 0 11 30 13 54 4 17 -7 22
-34 6 -34 -19 0 -10 -39 11 -45 11 -4 23 -4 26 -1 3 3 25 -6 49 -20 24 -14 65
-29 91 -32 40 -6 48 -11 48 -29 0 -26 10 -37 25 -28 8 5 8 11 -1 21 -10 12 -8
18 7 29 32 24 84 38 121 32 19 -4 43 -1 53 6 20 12 52 0 87 -32 23 -21 167
-108 193 -116 11 -4 17 -12 13 -21 -3 -7 0 -14 6 -14 6 0 11 7 11 15 0 8 9 15
21 15 11 0 18 -4 15 -8 -2 -4 4 -14 16 -21 18 -11 19 -10 13 8 -5 16 -2 21 12
21 11 0 24 -5 31 -12 7 -7 13 -10 13 -7 10 32 31 380 25 404 -5 19 -114 77
-311 165 -27 13 -77 35 -110 50 -33 16 -123 57 -200 93 -194 90 -440 205 -565
264 -58 28 -165 76 -239 108 -73 32 -168 82 -210 110 -42 28 -130 87 -196 132
-66 44 -187 122 -270 173 -82 51 -200 123 -262 161 -61 38 -118 69 -126 69 -8
0 -72 -37 -143 -82z m178 -190 c15 -43 15 -43 69 -46 l54 -3 -43 -38 -44 -37
12 -43 c6 -24 8 -46 4 -50 -4 -3 -9 0 -11 7 -3 7 -18 19 -34 28 -27 14 -31 13
-66 -11 -21 -13 -41 -21 -45 -17 -4 4 -1 25 6 47 14 40 14 40 -20 64 -46 33
-44 51 6 51 38 0 42 3 62 45 12 25 25 45 29 45 4 0 14 -19 21 -42z m-532 -638
c0 -5 -4 -10 -10 -10 -5 0 -10 5 -10 10 0 6 5 10 10 10 6 0 10 -4 10 -10z
m-1188 -341 c107 -17 111 -21 28 -34 -117 -19 -312 -81 -378 -119 -56 -33 -63
-35 -148 -34 -75 1 -99 -3 -153 -26 -75 -30 -71 -30 -71 -13 1 18 135 107 162
107 12 0 41 -7 64 -16 42 -16 43 -16 81 12 21 16 58 48 83 72 41 39 49 43 85
39 22 -3 52 -8 67 -12 20 -5 32 -2 49 14 26 24 34 25 131 10z m3945 -191 c3
-46 2 -50 -9 -34 -37 56 -55 66 -120 66 -81 0 -66 19 30 36 83 14 93 7 99 -68z
m-3207 -33 c0 -9 -30 3 -56 23 l-29 23 43 -22 c23 -11 42 -22 42 -24z m2610
-6 c0 -5 -4 -9 -10 -9 -5 0 -10 7 -10 16 0 8 5 12 10 9 6 -3 10 -10 10 -16z
m-291 -3 c9 -10 8 -15 -4 -20 -10 -4 -15 1 -15 14 0 24 4 25 19 6z m151 4 c0
-5 -5 -10 -11 -10 -5 0 -7 5 -4 10 3 6 8 10 11 10 2 0 4 -4 4 -10z m208 -40
c17 -16 35 -30 41 -30 6 0 11 -4 11 -10 0 -5 -5 -10 -10 -10 -18 0 -70 30 -70
40 0 6 -7 10 -15 10 -8 0 -15 7 -15 15 0 24 26 17 58 -15z m-2898 -1 c0 -14
-17 -10 -23 5 -4 10 -1 13 9 9 7 -3 14 -9 14 -14z m-103 -5 c-3 -3 -12 -4 -19
-1 -8 3 -5 6 6 6 11 1 17 -2 13 -5z m2676 -11 c-7 -2 -21 -2 -30 0 -10 3 -4 5
12 5 17 0 24 -2 18 -5z m-3533 -61 c0 -13 -12 -22 -22 -16 -10 6 -1 24 13 24
5 0 9 -4 9 -8z m-31 -61 c-19 -16 -25 -17 -27 -5 -2 8 -9 15 -15 15 -7 1 4 5
23 8 45 9 48 6 19 -18z m4418 13 c-3 -3 -12 -4 -19 -1 -8 3 -5 6 6 6 11 1 17
-2 13 -5z m-4567 -23 c0 -5 -7 -11 -15 -15 -9 -3 -15 0 -15 9 0 8 7 15 15 15
8 0 15 -4 15 -9z m4650 -11 c0 -5 -4 -10 -10 -10 -5 0 -10 5 -10 10 0 6 5 10
10 10 6 0 10 -4 10 -10z m-4610 -10 c0 -5 -4 -10 -10 -10 -5 0 -10 5 -10 10 0
6 5 10 10 10 6 0 10 -4 10 -10z"/>
<path d="M4315 8059 c-4 -6 -5 -13 -2 -16 7 -7 27 6 27 18 0 12 -17 12 -25 -2z"/>
<path d="M5955 8020 c-3 -5 -1 -10 4 -10 6 0 11 5 11 10 0 6 -2 10 -4 10 -3 0
-8 -4 -11 -10z"/>
<path d="M4245 7980 c3 -5 15 -10 26 -10 10 0 19 5 19 10 0 6 -12 10 -26 10
-14 0 -23 -4 -19 -10z"/>
<path d="M5935 7981 c-12 -12 -3 -22 17 -19 28 4 36 27 8 25 -11 -1 -23 -3
-25 -6z"/>
<path d="M3900 7861 c0 -12 5 -21 10 -21 6 0 10 6 10 14 0 8 -4 18 -10 21 -5
3 -10 -3 -10 -14z"/>
<path d="M6756 7871 c-4 -7 -5 -15 -2 -18 9 -9 19 4 14 18 -4 11 -6 11 -12 0z"/>
<path d="M3800 7860 c0 -5 5 -10 10 -10 6 0 10 5 10 10 0 6 -4 10 -10 10 -5 0
-10 -4 -10 -10z"/>
<path d="M6610 7845 c0 -8 4 -15 10 -15 5 0 7 7 4 15 -4 8 -8 15 -10 15 -2 0
-4 -7 -4 -15z"/>
<path d="M6536 7842 c-2 -4 -1 -14 5 -22 7 -12 9 -10 9 8 0 23 -5 28 -14 14z"/>
<path d="M7030 7820 c0 -5 5 -10 11 -10 5 0 7 5 4 10 -3 6 -8 10 -11 10 -2 0
-4 -4 -4 -10z"/>
<path d="M7060 7812 c0 -12 4 -22 9 -22 10 0 9 26 -2 36 -4 4 -7 -2 -7 -14z"/>
<path d="M5830 7812 c0 -5 19 -13 41 -17 54 -9 134 -51 154 -81 14 -21 21 -23
88 -21 64 2 76 -1 112 -25 22 -16 43 -28 47 -28 17 0 7 28 -19 52 -46 42 -88
59 -131 52 -34 -5 -42 -3 -56 17 -9 13 -19 23 -21 21 -3 -1 -19 5 -36 14 -38
19 -179 32 -179 16z"/>
<path d="M6845 7810 c-8 -13 5 -13 25 0 13 8 13 10 -2 10 -9 0 -20 -4 -23 -10z"/>
<path d="M7102 7799 c2 -8 17 -15 33 -17 15 -2 34 -10 42 -18 16 -16 63 -19
63 -4 0 6 -9 10 -19 10 -11 0 -22 4 -25 9 -3 4 -18 11 -33 14 -16 3 -36 9 -47
13 -14 5 -17 3 -14 -7z"/>
<path d="M7220 7743 c-14 -3 -28 -8 -32 -11 -11 -11 54 -5 82 6 l25 11 -25 -1
c-14 0 -36 -3 -50 -5z"/>
<path d="M3290 7719 c0 -5 5 -7 10 -4 6 3 10 8 10 11 0 2 -4 4 -10 4 -5 0 -10
-5 -10 -11z"/>
<path d="M7285 7720 c-13 -6 -15 -9 -5 -9 8 0 22 4 30 9 18 12 2 12 -25 0z"/>
<path d="M2965 7710 c-8 -13 15 -13 35 0 12 8 11 10 -7 10 -12 0 -25 -4 -28
-10z"/>
<path d="M7225 7700 c-3 -5 -1 -10 4 -10 6 0 11 5 11 10 0 6 -2 10 -4 10 -3 0
-8 -4 -11 -10z"/>
<path d="M7551 7674 c0 -11 3 -14 6 -6 3 7 2 16 -1 19 -3 4 -6 -2 -5 -13z"/>
<path d="M4115 7430 c-41 -10 -85 -28 -85 -35 0 -3 28 -4 63 -2 52 2 72 -3
116 -26 48 -24 56 -26 70 -13 30 27 106 56 151 57 l45 1 -30 13 c-48 23 -107
18 -149 -10 -34 -23 -39 -24 -53 -9 -32 32 -71 39 -128 24z"/>
<path d="M5825 7369 c-64 -15 -66 -29 -3 -29 42 0 64 -6 92 -25 44 -30 52 -31
91 -5 22 15 47 20 97 20 37 0 70 5 73 10 3 6 -2 10 -12 10 -11 0 -23 4 -29 10
-5 5 -31 13 -56 16 -38 5 -52 3 -76 -15 -37 -26 -38 -26 -69 -1 -28 22 -46 23
-108 9z"/>
<path d="M3535 7326 c-70 -26 -126 -55 -107 -56 7 0 34 9 60 21 26 11 56 24
67 28 61 25 69 30 55 30 -8 0 -42 -10 -75 -23z"/>
<path d="M5209 7359 l-24 -20 28 17 c15 9 27 18 27 20 0 8 -8 4 -31 -17z"/>
<path d="M5156 7315 c-11 -8 -17 -17 -14 -20 2 -3 13 4 23 15 21 23 18 25 -9
5z"/>
<path d="M5025 6951 c-7 -22 10 -61 26 -61 14 0 7 73 -8 77 -6 2 -14 -5 -18
-16z"/>
<path d="M3157 5535 c-9 -19 -15 -35 -12 -35 7 0 37 61 33 66 -3 2 -12 -12
-21 -31z"/>
<path d="M3116 5471 c-4 -7 -5 -15 -2 -18 9 -9 19 4 14 18 -4 11 -6 11 -12 0z"/>
<path d="M4425 4618 l-16 -33 21 24 c11 13 20 27 20 32 0 18 -10 8 -25 -23z"/>
<path d="M3530 5420 c0 -5 5 -10 10 -10 6 0 10 5 10 10 0 6 -4 10 -10 10 -5 0
-10 -4 -10 -10z"/>
<path d="M4316 3004 c-31 -75 -56 -141 -56 -146 0 -5 48 -8 118 -6 112 3 117
4 115 24 -3 29 -104 264 -113 264 -4 0 -33 -61 -64 -136z"/>
<path d="M6480 2981 l0 -278 108 -6 c146 -9 285 4 320 30 64 48 67 59 67 247
0 170 0 173 -27 213 -44 66 -69 73 -282 73 l-186 0 0 -279z"/>
<path d="M2785 2100 c-6 -9 55 -105 135 -215 16 -22 40 -54 52 -72 13 -17 26
-29 31 -26 4 2 39 -10 78 -28 49 -23 66 -35 57 -41 -9 -6 -6 -7 9 -3 14 4 28
0 41 -13 10 -10 23 -17 29 -15 6 2 18 -3 26 -12 9 -8 22 -15 29 -16 7 0 40
-16 73 -34 33 -19 72 -39 88 -46 15 -6 27 -16 27 -22 0 -6 3 -8 6 -4 6 5 84
-30 94 -43 3 -4 34 -22 70 -42 36 -19 105 -59 154 -89 49 -30 105 -63 125 -74
20 -11 38 -22 41 -25 3 -3 21 -14 40 -24 19 -11 37 -22 40 -25 3 -3 39 -28 80
-56 41 -27 77 -53 78 -57 2 -5 8 -8 13 -8 12 0 132 -82 137 -92 2 -5 9 -8 15
-8 7 0 24 -11 38 -23 13 -13 29 -26 35 -28 12 -5 373 -256 399 -277 6 -5 24
-17 40 -28 35 -22 40 -26 81 -59 18 -14 35 -25 39 -25 4 0 24 -13 44 -29 60
-47 75 -48 139 -5 31 20 106 73 165 116 59 43 110 78 114 78 3 0 20 11 37 23
17 13 69 50 116 83 82 56 162 114 187 134 7 6 16 10 22 10 5 0 11 3 13 8 3 8
215 158 267 188 17 10 31 21 31 25 0 9 108 78 330 211 148 89 663 358 685 358
4 0 35 14 71 32 49 24 72 43 98 82 20 28 60 87 90 131 31 43 52 83 47 88 -4 4
-45 7 -91 5 l-83 -3 -51 -73 c-54 -78 -51 -76 -211 -138 -82 -31 -320 -146
-420 -202 -282 -158 -439 -260 -975 -632 -124 -86 -263 -182 -310 -214 -47
-32 -111 -76 -142 -98 l-58 -40 -67 48 c-38 26 -102 70 -143 99 -41 29 -145
101 -230 160 -283 198 -663 449 -840 555 -172 103 -575 312 -668 346 -63 23
-105 56 -133 101 -12 21 -34 50 -47 66 -24 25 -31 27 -103 27 -43 0 -81 -5
-84 -10z"/>
<path d="M3020 1766 c0 -2 7 -7 16 -10 8 -3 12 -2 9 4 -6 10 -25 14 -25 6z"/>
<path d="M6554 1384 c-18 -14 -18 -15 4 -4 12 6 22 13 22 15 0 8 -5 6 -26 -11z"/>
</g>
</svg>
